<?xml version="1.0" encoding="utf-8"?>
<!-- Generator: Adobe Illustrator 16.0.5, SVG Export Plug-In . SVG Version: 6.00 Build 0)  -->
<!DOCTYPE svg PUBLIC "-//W3C//DTD SVG 1.1//EN" "http://www.w3.org/Graphics/SVG/1.1/DTD/svg11.dtd">
<svg version="1.1" id="Layer_1" xmlns="http://www.w3.org/2000/svg" xmlns:xlink="http://www.w3.org/1999/xlink" x="0px" y="0px"
	 width="916.381px" height="259px" viewBox="0 0 916.381 259" enable-background="new 0 0 916.381 259" xml:space="preserve">
<path d="M47.6,80.886h22.492l6.766,76.438h1.829l11.155-76.438h23.773l10.972,76.438h1.829l6.949-76.438h21.395l-11.155,94.359
	h-32.185l-9.326-65.101h-1.829l-9.326,65.101H58.754L47.6,80.886z"/>
<path d="M245.093,175.245c-5.609,0-10.12-1.432-13.532-4.297c-3.415-2.863-5.426-6.978-6.035-12.344h-0.915
	c-1.708,6.217-5.092,10.912-10.149,14.08c-5.061,3.169-11.246,4.755-18.561,4.755c-9.143,0-16.489-2.469-22.035-7.406
	c-5.549-4.938-8.32-11.854-8.32-20.755c0-9.875,3.594-17.189,10.789-21.944c7.191-4.754,17.738-7.132,31.636-7.132h15.178v-4.754
	c0-5.606-1.312-9.844-3.932-12.71c-2.623-2.862-7.04-4.297-13.258-4.297c-5.731,0-10.363,1.097-13.898,3.292
	c-3.537,2.194-6.583,5.06-9.143,8.595l-14.812-13.167c3.168-5.363,8.137-9.783,14.903-13.258s15.452-5.212,26.059-5.212
	c12.92,0,23.01,2.958,30.264,8.869c7.252,5.915,10.881,14.844,10.881,26.79v41.328h10.423v19.566H245.093z M206.143,159.701
	c4.754,0,8.777-1.157,12.069-3.475c3.292-2.313,4.938-5.668,4.938-10.058v-11.337h-14.446c-11.095,0-16.641,3.72-16.641,11.154
	v3.657c0,3.292,1.28,5.792,3.84,7.498C198.462,158.85,201.874,159.701,206.143,159.701z"/>
<path d="M372.366,184.754c0,9.995-4.206,17.372-12.618,22.127s-21.641,7.132-39.682,7.132c-9.023,0-16.458-0.52-22.31-1.555
	c-5.852-1.037-10.515-2.531-13.989-4.479c-3.474-1.952-5.915-4.27-7.314-6.949c-1.403-2.683-2.103-5.609-2.103-8.777
	c0-5.366,1.583-9.418,4.754-12.161c3.169-2.743,7.618-4.846,13.349-6.309v-1.098c-4.023-1.217-7.223-2.954-9.6-5.211
	c-2.377-2.255-3.566-5.455-3.566-9.601c0-4.632,1.554-8.046,4.663-10.24c3.108-2.195,7.223-3.9,12.343-5.121v-1.097
	c-5.609-2.681-9.966-6.461-13.075-11.338c-3.109-4.874-4.663-10.789-4.663-17.738c0-5.485,0.974-10.332,2.926-14.537
	c1.949-4.206,4.723-7.709,8.32-10.516c3.594-2.803,7.892-4.937,12.892-6.4c4.998-1.463,10.606-2.194,16.824-2.194
	c5.972,0,11.521,0.672,16.641,2.012v-5.12c0-3.657,1.28-6.703,3.84-9.144c2.56-2.437,6.095-3.657,10.606-3.657h16.641v19.75h-22.675
	v1.646c5.12,2.683,9.112,6.372,11.978,11.063c2.863,4.694,4.297,10.395,4.297,17.098c0,5.486-0.977,10.304-2.926,14.446
	c-1.952,4.146-4.754,7.652-8.412,10.516c-3.657,2.865-8.017,5.028-13.075,6.491c-5.06,1.463-10.698,2.194-16.915,2.194
	c-2.806,0-5.486-0.151-8.046-0.457c-2.56-0.303-5-0.76-7.314-1.371c-1.343,0.731-2.469,1.646-3.383,2.742
	c-0.915,1.098-1.372,2.501-1.372,4.206c0,1.463,0.366,2.623,1.097,3.475c0.731,0.854,1.737,1.494,3.017,1.92
	c1.28,0.429,2.771,0.703,4.48,0.823c1.706,0.123,3.474,0.183,5.303,0.183h21.578c6.703,0,12.435,0.672,17.189,2.012
	c4.754,1.343,8.654,3.231,11.703,5.669c3.046,2.44,5.24,5.303,6.583,8.595C371.695,177.074,372.366,180.731,372.366,184.754z
	 M346.765,186.766c0-2.44-0.977-4.36-2.926-5.76c-1.952-1.403-5.669-2.104-11.155-2.104h-32.368
	c-2.44,2.071-3.657,4.632-3.657,7.681c0,2.926,1.249,5.331,3.749,7.223c2.497,1.889,6.734,2.835,12.709,2.835h15.909
	c6.218,0,10.727-0.854,13.532-2.561C345.362,192.372,346.765,189.935,346.765,186.766z M319.518,128.797
	c5.486,0,9.478-1.34,11.978-4.022c2.498-2.681,3.749-6.095,3.749-10.241v-4.389c0-4.143-1.251-7.558-3.749-10.24
	c-2.5-2.68-6.492-4.023-11.978-4.023c-5.366,0-9.266,1.344-11.704,4.023c-2.44,2.683-3.657,6.098-3.657,10.24v4.389
	c0,4.146,1.217,7.561,3.657,10.241C310.252,127.457,314.152,128.797,319.518,128.797z"/>
<path d="M389.005,154.032h21.761v-51.934h-21.761V80.886h48.825v26.699h1.28c0.852-3.412,2.041-6.735,3.566-9.967
	c1.523-3.229,3.475-6.095,5.852-8.595c2.377-2.497,5.271-4.479,8.686-5.942c3.412-1.464,7.435-2.195,12.07-2.195h8.959v24.87
	h-20.115c-6.706,0-11.766,1.975-15.178,5.921c-3.415,3.948-5.12,8.774-5.12,14.483v27.872h31.086v21.213h-79.912V154.032z"/>
<path d="M540.052,177.439c-7.314,0-13.898-1.129-19.75-3.383c-5.852-2.255-10.82-5.515-14.904-9.783
	c-4.086-4.267-7.223-9.446-9.417-15.544c-2.194-6.095-3.292-12.983-3.292-20.664c0-7.68,1.098-14.566,3.292-20.664
	c2.194-6.094,5.331-11.274,9.417-15.543c4.084-4.267,9.053-7.526,14.904-9.783c5.852-2.255,12.436-3.384,19.75-3.384
	s13.897,1.129,19.749,3.384c5.852,2.257,10.817,5.517,14.903,9.783c4.084,4.269,7.224,9.449,9.418,15.543
	c2.194,6.098,3.291,12.984,3.291,20.664c0,7.681-1.097,14.569-3.291,20.664c-2.194,6.098-5.334,11.277-9.418,15.544
	c-4.086,4.269-9.052,7.528-14.903,9.783C553.949,176.311,547.366,177.439,540.052,177.439z M540.052,157.324
	c6.094,0,10.849-1.889,14.264-5.669c3.411-3.777,5.119-9.144,5.119-16.092v-14.995c0-6.949-1.708-12.312-5.119-16.093
	c-3.415-3.777-8.17-5.669-14.264-5.669c-6.098,0-10.853,1.892-14.264,5.669c-3.415,3.78-5.121,9.144-5.121,16.093v14.995
	c0,6.948,1.706,12.314,5.121,16.092C529.199,155.436,533.954,157.324,540.052,157.324z"/>
<path d="M665.679,158.056h-1.098c-2.074,5.366-5.334,9.938-9.783,13.715c-4.452,3.777-10.455,5.669-18.013,5.669
	c-4.512,0-8.657-0.763-12.435-2.286c-3.78-1.522-7.012-3.809-9.691-6.857c-2.684-3.046-4.786-6.766-6.31-11.154
	c-1.525-4.389-2.285-9.446-2.285-15.178V80.886h27.063v57.421c0,12.191,5.304,18.286,15.909,18.286c2.072,0,4.115-0.274,6.126-0.823
	c2.012-0.548,3.777-1.399,5.304-2.56c1.522-1.157,2.771-2.589,3.749-4.298c0.974-1.705,1.463-3.717,1.463-6.034V80.886h27.063
	v94.359h-27.063V158.056z"/>
<path d="M715.416,80.886h27.064v17.358h1.28c2.313-5.657,5.668-10.329,10.058-14.018c4.389-3.688,10.36-5.535,17.921-5.535
	c5.24,0,10.025,0.978,14.354,2.926c4.326,1.952,8.046,4.938,11.155,8.961c3.108,4.023,5.546,9.144,7.314,15.36
	c1.766,6.218,2.651,13.596,2.651,22.127c0,8.535-0.886,15.909-2.651,22.127c-1.769,6.218-4.206,11.338-7.314,15.36
	c-3.109,4.023-6.829,7.013-11.155,8.961c-4.329,1.948-9.114,2.926-14.354,2.926c-7.561,0-13.532-1.814-17.921-5.44
	c-4.39-3.629-7.744-8.332-10.058-14.112h-1.28v53.932h-27.064V80.886z M760.035,156.227c6.095,0,10.789-1.846,14.081-5.54
	c3.291-3.694,4.938-8.812,4.938-15.354V120.8c0-6.541-1.646-11.658-4.938-15.353c-3.292-3.694-7.986-5.543-14.081-5.543
	c-4.754,0-8.869,1.151-12.343,3.451c-3.475,2.304-5.212,5.935-5.212,10.901v27.618c0,4.966,1.737,8.601,5.212,10.9
	C751.166,155.078,755.281,156.227,760.035,156.227z"/>
<path d="M868.108,177.439c-10.486,0-19.599-1.586-27.339-4.755c-7.743-3.168-13.563-7.497-17.464-12.983l15.179-14.08
	c3.657,4.022,7.954,7.163,12.892,9.417c4.938,2.258,10.575,3.384,16.915,3.384c5.363,0,9.569-0.823,12.618-2.469
	c3.046-1.646,4.571-4.175,4.571-7.589c0-2.681-1.037-4.541-3.108-5.578c-2.074-1.034-4.938-1.857-8.595-2.469L858.6,137.94
	c-4.27-0.608-8.229-1.555-11.887-2.834c-3.657-1.28-6.829-3.018-9.509-5.212c-2.684-2.194-4.817-4.875-6.4-8.046
	c-1.586-3.169-2.377-7.01-2.377-11.521c0-9.875,3.777-17.615,11.337-23.225c7.558-5.605,18.164-8.412,31.819-8.412
	c9.263,0,17.158,1.252,23.681,3.749c6.521,2.5,11.732,6.066,15.636,10.698l-13.532,15.36c-2.806-3.046-6.4-5.606-10.789-7.681
	c-4.389-2.071-9.692-3.108-15.909-3.108c-10.486,0-15.727,3.172-15.727,9.509c0,2.806,1.034,4.727,3.108,5.761
	c2.071,1.037,4.938,1.859,8.595,2.469l14.995,2.377c4.266,0.611,8.229,1.555,11.886,2.834c3.657,1.28,6.857,3.018,9.601,5.212
	s4.906,4.878,6.492,8.046c1.583,3.172,2.377,7.012,2.377,11.521c0,9.875-3.812,17.679-11.429,23.407
	C892.946,174.576,882.126,177.439,868.108,177.439z"/>
</svg>
